<svg xmlns="http://www.w3.org/2000/svg" width="42" height="51" viewBox="0 0 42 51">
	<path fill="#023189"
		d="M7.845 15.175h26.22c-.54-3.949-2.842-7.336-6.1-9.365l2.57-4.397c.265-.45.109-1.026-.347-1.286-.457-.26-1.041-.107-1.304.345l-2.618 4.475c-1.628-.713-3.41-1.143-5.311-1.143-1.855 0-3.6.408-5.196 1.087L13.176.471c-.264-.451-.848-.605-1.304-.344-.457.26-.613.836-.35 1.286l2.526 4.322c-3.315 2.02-5.658 5.447-6.203 9.44zM26.95 7.45c.75 0 1.357.6 1.357 1.34 0 .74-.607 1.34-1.357 1.34s-1.358-.6-1.358-1.34c0-.74.607-1.34 1.358-1.34zm-11.872 0c.75 0 1.357.6 1.357 1.34 0 .74-.608 1.34-1.357 1.34-.75 0-1.358-.6-1.358-1.34 0-.74.608-1.34 1.358-1.34zm-7.443 9.612h26.727v20.74c0 2.081-1.71 3.77-3.819 3.77h-1.908v6.6c0 1.562-1.281 2.828-2.864 2.828-1.581 0-2.863-1.266-2.863-2.828v-6.6H17.18v6.6c0 1.562-1.281 2.828-2.863 2.828s-2.864-1.266-2.864-2.828v-6.6c-2.108 0-3.818-1.688-3.818-3.77v-20.74zM5.727 19.89v11.312c0 1.561-1.282 2.828-2.863 2.828C1.28 34.03 0 32.763 0 31.202V19.89c0-1.562 1.281-2.829 2.864-2.829 1.58 0 2.863 1.267 2.863 2.829zm36.273 0v11.312c0 1.561-1.281 2.828-2.864 2.828-1.581 0-2.863-1.267-2.863-2.828V19.89c0-1.562 1.282-2.829 2.863-2.829 1.583 0 2.864 1.267 2.864 2.829z"
		opacity=".4" />
</svg>
