<svg xmlns="http://www.w3.org/2000/svg" width="43" height="51" viewBox="0 0 43 51">
	<path fill="currentColor"
		d="M24.294 11.893c-.76.224-1.836.397-3.21.52.061-3.044.86-5.67 2.41-7.874 1.52-2.19 4.09-3.703 7.71-4.539.023.059.052.176.08.338.028.163.057.275.08.336 0 .081.005.184.016.307.006.124.011.224.011.309 0 1.246-.299 2.633-.895 4.166-.614 1.532-1.572 2.942-2.867 4.229-1.11 1.1-2.226 1.84-3.335 2.208zm13.828 21.484c-1.42-2.02-2.129-4.302-2.129-6.835 0-2.31.665-4.425 2.005-6.343.721-1.046 1.893-2.248 3.52-3.618-1.07-1.31-2.14-2.327-3.21-3.065-1.938-1.326-4.129-1.992-6.579-1.992-1.459 0-3.24.347-5.334 1.04-2.016.7-3.492 1.043-4.416 1.043-.699 0-2.118-.304-4.259-.919-2.162-.613-3.982-.917-5.463-.917-3.543 0-6.46 1.47-8.77 4.412C1.16 19.164 0 22.99 0 27.643c0 4.95 1.515 10.085 4.54 15.42C7.604 48.354 10.702 51 13.828 51c1.048 0 2.41-.347 4.073-1.04 1.667-.677 3.132-1.013 4.387-1.013 1.336 0 2.89.327 4.659.979 1.87.655 3.312.981 4.32.981 2.637 0 5.278-2.001 7.937-6.006 1.724-2.554 2.99-5.106 3.796-7.66-1.837-.554-3.458-1.84-4.878-3.864z" />
</svg>
