<svg xmlns="http://www.w3.org/2000/svg" width="39" height="51" viewBox="0 0 39 51">
	<path fill="#023189" fill-rule="evenodd"
		d="M26.52 39.2c-.568-.276-1.072-.13-1.713-.017-1.318.451-1.771 1.415-1.505 2.71.237 1.158 1.004 1.789 2.2 1.851 1.192.061 2.077-.465 2.392-1.596.361-1.298.05-2.416-1.375-2.948m-10.783 2.757c-.155.94-.786 1.56-1.718 1.727-1.253.222-2.3-.088-2.779-1.43-.165-.57-.133-1.16-.021-1.699.184-.723.644-1.173 1.362-1.367.61-.118 1.217-.118 1.712.003 1.357.466 1.65 1.518 1.444 2.766m15.303.229l-1.675 1.847c-1.313.94-2.726 1.67-4.31 2.039-.292.156-.46.085-.868-.004-2.879-1.093-3.975-2.642-3.538-5.643.549-3.775 2.493-6.681 6.146-8.15 3.303-1.329 5.961.518 6.1 4.062.087 2.193-.906 4.005-1.855 5.849m-12.36-16.34c-.508.81-.892 1.699-1.365 2.618-.462-2.358.262-4.776 1.881-6.434.802-.052.701.56.773 1.046l1.303 2.655c-.86.552-1.846-1.08-2.593.114m-.83 16.007c-.308 3.847-3.539 5.512-6.875 3.547-3.144-1.852-5.232-6.252-4.667-9.84.33-2.098 1.513-3.448 3.564-4.033.35-.083.612-.083.867-.017 5.486 1.338 7.41 6.623 7.111 10.343m-6.537-24.776l.673 5.777c-2.248-4.24-2.779-.136-4.36.262.696-2.508 1.708-4.415 3.687-6.04m6.788-3.068c-.122-.222-.172-.432.1-.587.255-.632.437-1.371 1.258-.41.742.868 1.605 1.643 2.013 3.217-1.482-1.005-2.766-1.494-3.75.432-.286-1.188.448-1.848.379-2.652m7.773 5.667c.443-.668.148-1.462.436-2.427 1.556 1.2 2.51 2.644 3.054 4.397.414.475.468 1.012.279 1.613-.505-.082-.467-.557-.654-.86-.818-.375-.88-1.47-1.901-1.866l-1.15 1.845-.28-.064.155-2.018c-.156-.224-.187-.436.061-.62M36.34 34.64l-.43-.425c.522-3.052.504-6.09-.245-9.108l-.077-.601c-.337-3.274-2.184-9.039-3.384-10.56l-.452 1.825-.423 1.66c-.457-.494-.204-.922-.215-1.322C26.903 9.46 21.334 4.247 14.31 0c.28 1.136.331 1.923.66 2.571 1.18 2.327-.123 3.697-1.758 5.02-4.798 3.881-7.921 8.918-10.003 14.648-.183.504-.132 1.093-.2 1.733-1.106-1.173-1.623-2.745-3-3.918.023 4.236-.198 8.228.644 12.169-.04.102-.029.198.032.29.502 3.902 1.87 7.501 4.08 10.731 2.58 3.77 5.955 6.511 10.61 7.355l.607.09c.57.358 1.198.334 1.831.28l2.424.001c1.73.088 3.307-.504 4.876-1.114 3.065-1.19 5.318-3.441 7.51-5.767.468-.381.914-.777.96-1.438 2.58-2.304 3.841-5.393 5.416-8.693l-2.661.682"
		opacity=".4" />
</svg>
