<svg xmlns="http://www.w3.org/2000/svg" width="51" height="49" viewBox="0 0 51 49">
	<path fill="#023189"
		d="M46.364 49h-8.259l.58-7h-4.057l-.58 7H16.952l-.58-7h-4.057l.58 7H4.636L0 18.667 11.59 0h27.82L51 18.667 46.364 49zM37.09 9.333H29.64l.496 3.5h-9.272l.496-3.5h-7.45l-4.637 9.334 2.318 18.666h27.818l2.318-18.666-4.636-9.334zm-4.057 21.805c-.64 0-1.159-1.943-1.159-4.34s.519-4.34 1.16-4.34c.64 0 1.158 1.943 1.158 4.34s-.519 4.34-1.159 4.34zm-14.633.362c-.64 0-1.16-1.943-1.16-4.34s.52-4.34 1.16-4.34c.64 0 1.159 1.943 1.159 4.34s-.52 4.34-1.16 4.34z"
		opacity=".4" />
</svg>
