<svg xmlns="http://www.w3.org/2000/svg" width="51" height="51" viewBox="0 0 51 51">
	<path fill="#023189"
		d="M25.497 0c4.068-.01 8.08.965 11.69 2.841l.474.246-.416.347c-1.025.82-1.833 1.878-2.352 3.084l-.142.347-.326-.156c-9.075-4.31-19.932-1.532-25.823 6.606-5.891 8.137-5.14 19.32 1.786 26.596s18.058 8.577 26.475 3.093c8.417-5.484 11.725-16.192 7.868-25.469l-.14-.346.348-.125c1.23-.46 2.327-1.215 3.194-2.2l.347-.402.222.486-.003-.032c4.696 10.295 2.047 22.453-6.506 29.86s-20.963 8.293-30.48 2.174C2.194 40.831-2.154 29.173 1.034 18.316 4.222 7.459 14.182.002 25.497 0zm.003 13.89c6.415.007 11.613 5.206 11.62 11.62 0 6.418-5.202 11.621-11.62 11.621-6.417 0-11.62-5.203-11.62-11.62 0-6.419 5.203-11.621 11.62-11.621zm16.685-9.557c2.923 0 5.293 2.37 5.293 5.293 0 2.924-2.37 5.294-5.293 5.294-2.924 0-5.294-2.37-5.294-5.294 0-2.923 2.37-5.293 5.294-5.293z"
		opacity=".4" />
</svg>
