<svg xmlns="http://www.w3.org/2000/svg" width="52" height="46" viewBox="0 0 52 46">
	<g fill="none" opacity=".4">
		<path fill="#023189"
			d="M41.958 14.813c-.529-.182-1.077-.354-1.64-.517.092-.379.177-.752.253-1.12C41.813 7.149 41 2.293 38.228.694 35.569-.84 31.221.758 26.83 4.58c-.423.368-.846.757-1.27 1.164-.281-.27-.563-.53-.844-.78C20.114.879 15.501-.843 12.731.76c-2.656 1.537-3.443 6.103-2.325 11.816.108.552.234 1.115.377 1.688-.653.186-1.283.383-1.887.593C3.501 16.74.055 19.687.055 22.745c0 3.159 3.699 6.327 9.32 8.247.443.152.903.295 1.377.431-.154.62-.288 1.227-.4 1.82-1.066 5.614-.234 10.071 2.415 11.6 2.737 1.577 7.329-.045 11.8-3.953.354-.31.709-.637 1.064-.98.46.443.92.863 1.378 1.256 4.331 3.728 8.61 5.233 11.256 3.7 2.733-1.582 3.622-6.37 2.468-12.197-.088-.445-.19-.9-.305-1.362.322-.095.639-.194.947-.296 5.843-1.936 9.644-5.065 9.644-8.266 0-3.07-3.557-6.037-9.061-7.932z" />
		<path fill="#FAFCFF"
			d="M40.69 28.944c-.278.093-.564.182-.855.268-.645-2.042-1.516-4.213-2.581-6.456 1.017-2.19 1.853-4.334 2.48-6.362.522.15 1.028.31 1.515.477 4.716 1.624 7.593 4.024 7.593 5.874 0 1.97-3.107 4.528-8.151 6.2zm-2.092 4.148c.51 2.576.582 4.906.245 6.726-.304 1.637-.914 2.727-1.67 3.164-1.605.93-5.04-.278-8.744-3.466-.425-.365-.853-.756-1.282-1.169 1.436-1.57 2.872-3.396 4.272-5.424 2.464-.218 4.792-.576 6.903-1.064.104.42.196.831.276 1.233zm-21.168 9.73c-1.57.554-2.82.57-3.575.134-1.607-.927-2.276-4.506-1.364-9.307.104-.55.229-1.115.372-1.692 2.088.461 4.398.794 6.868.994 1.41 1.984 2.887 3.808 4.375 5.405-.325.314-.649.613-.971.894-1.977 1.729-3.959 2.955-5.705 3.572zm-7.352-13.89c-2.485-.85-4.537-1.953-5.944-3.158-1.264-1.082-1.902-2.157-1.902-3.029 0-1.856 2.767-4.223 7.381-5.832.56-.195 1.146-.379 1.754-.552.638 2.075 1.475 4.244 2.484 6.437-1.022 2.226-1.87 4.43-2.515 6.528-.433-.124-.854-.256-1.258-.394zm2.465-16.774c-.958-4.895-.322-8.587 1.279-9.514 1.705-.987 5.475.42 9.449 3.949.254.225.509.461.764.705-1.48 1.59-2.944 3.4-4.341 5.373-2.397.222-4.692.58-6.801 1.057-.133-.533-.25-1.058-.35-1.57zm21.983 5.428c-.504-.87-1.022-1.721-1.55-2.548 1.627.205 3.185.478 4.648.812-.44 1.408-.987 2.88-1.631 4.388-.463-.877-.952-1.762-1.467-2.652zm-8.965-8.732c1.005 1.088 2.01 2.303 3 3.621-.997-.047-2.006-.072-3.024-.072-1.008 0-2.01.024-3 .07.99-1.305 2.005-2.518 3.024-3.619zm-9.022 8.747c-.504.874-.984 1.754-1.439 2.636-.634-1.504-1.176-2.982-1.62-4.41 1.455-.326 3.006-.592 4.621-.793-.535.835-1.057 1.691-1.562 2.567zm1.609 13.01c-1.67-.186-3.243-.438-4.697-.754.45-1.453 1.004-2.964 1.652-4.5.456.881.938 1.762 1.445 2.637.516.892 1.05 1.766 1.6 2.618zm7.474 6.178c-1.032-1.113-2.062-2.345-3.067-3.67.976.039 1.971.058 2.982.058 1.039 0 2.066-.023 3.077-.068-.993 1.349-1.995 2.582-2.992 3.68zm10.391-11.51c.682 1.553 1.256 3.055 1.712 4.483-1.478.337-3.073.609-4.754.81.529-.838 1.05-1.703 1.564-2.593.52-.9 1.012-1.801 1.478-2.7zm-3.364 1.613c-.796 1.381-1.614 2.7-2.445 3.944-1.512.109-3.074.164-4.667.164-1.586 0-3.129-.049-4.614-.145-.864-1.261-1.7-2.584-2.491-3.951-.79-1.364-1.516-2.74-2.175-4.107.659-1.37 1.383-2.747 2.168-4.108.787-1.365 1.616-2.68 2.471-3.934 1.516-.115 3.07-.174 4.641-.174 1.578 0 3.134.06 4.65.175.842 1.244 1.665 2.556 2.455 3.921.8 1.38 1.533 2.748 2.197 4.09-.662 1.364-1.394 2.745-2.19 4.125zM37.14 2.579c1.707.984 2.37 4.954 1.299 10.158-.069.333-.146.67-.23 1.014-2.114-.488-4.41-.851-6.814-1.077-1.4-1.994-2.851-3.807-4.308-5.377.392-.376.783-.736 1.172-1.075 3.763-3.274 7.28-4.567 8.881-3.643z" />
		<path fill="#023189"
			d="M25.537 18.194c2.514 0 4.551 2.038 4.551 4.551 0 2.513-2.037 4.551-4.55 4.551-2.514 0-4.552-2.038-4.552-4.55 0-2.514 2.038-4.552 4.551-4.552" />
	</g>
</svg>
