<svg xmlns="http://www.w3.org/2000/svg" width="52" height="46">
	<g fill="none">
		<path fill="currentColor"
			d="M41.958 14.813a34.775 34.775 0 00-1.64-.517c.092-.379.177-.752.253-1.12C41.813 7.149 41 2.293 38.228.694 35.569-.84 31.221.758 26.83 4.58c-.423.368-.846.757-1.27 1.164-.281-.27-.563-.53-.844-.78C20.114.879 15.501-.843 12.731.76c-2.656 1.537-3.443 6.103-2.325 11.816.108.552.234 1.115.377 1.688-.653.186-1.283.383-1.887.593C3.501 16.74.055 19.687.055 22.745c0 3.159 3.699 6.327 9.32 8.247.443.152.903.295 1.377.431-.154.62-.288 1.227-.4 1.82-1.066 5.614-.234 10.071 2.415 11.6 2.737 1.577 7.329-.045 11.8-3.953.354-.31.709-.637 1.064-.98.46.443.92.863 1.378 1.256 4.331 3.728 8.61 5.233 11.256 3.7 2.733-1.582 3.622-6.37 2.468-12.197-.088-.445-.19-.9-.305-1.362.322-.095.639-.194.947-.296 5.843-1.936 9.644-5.065 9.644-8.266 0-3.07-3.557-6.037-9.061-7.932z" />
		<path fill="#FAFCFF"
			d="M40.69 28.944c-.278.093-.564.182-.855.268-.645-2.042-1.516-4.213-2.581-6.456 1.017-2.19 1.853-4.334 2.48-6.362.522.15 1.028.31 1.515.477 4.716 1.624 7.593 4.024 7.593 5.874 0 1.97-3.107 4.528-8.151 6.2zm-2.092 4.148c.51 2.576.582 4.906.245 6.726-.304 1.637-.914 2.727-1.67 3.164-1.605.93-5.04-.278-8.744-3.466a30.614 30.614 0 01-1.282-1.169c1.436-1.57 2.872-3.396 4.272-5.424 2.464-.218 4.792-.576 6.903-1.064.104.42.196.831.276 1.233zm-21.168 9.73c-1.57.554-2.82.57-3.575.134-1.607-.927-2.276-4.506-1.364-9.307.104-.55.229-1.115.372-1.692 2.088.461 4.398.794 6.868.994a53.02 53.02 0 004.375 5.405c-.325.314-.649.613-.971.894-1.977 1.729-3.959 2.955-5.705 3.572zm-7.352-13.89c-2.485-.85-4.537-1.953-5.944-3.158-1.264-1.082-1.902-2.157-1.902-3.029 0-1.856 2.767-4.223 7.381-5.832.56-.195 1.146-.379 1.754-.552a52.28 52.28 0 002.484 6.437 53.368 53.368 0 00-2.515 6.528 26.297 26.297 0 01-1.258-.394zm2.465-16.774c-.958-4.895-.322-8.587 1.279-9.514 1.705-.987 5.475.42 9.449 3.949.254.225.509.461.764.705a52.122 52.122 0 00-4.341 5.373c-2.397.222-4.692.58-6.801 1.057a31.204 31.204 0 01-.35-1.57zm21.983 5.428a69.196 69.196 0 00-1.55-2.548c1.627.205 3.185.478 4.648.812a46.71 46.71 0 01-1.631 4.388 78.087 78.087 0 00-1.467-2.652zm-8.965-8.732a46.56 46.56 0 013 3.621 64.234 64.234 0 00-6.024-.002 48.443 48.443 0 013.024-3.619zm-9.022 8.747a64.19 64.19 0 00-1.439 2.636 48.365 48.365 0 01-1.62-4.41 48.77 48.77 0 014.621-.793 64.126 64.126 0 00-1.562 2.567zm1.609 13.01a46.383 46.383 0 01-4.697-.754 48.71 48.71 0 011.652-4.5 63.314 63.314 0 003.045 5.255zm7.474 6.178a48.676 48.676 0 01-3.067-3.67c.976.039 1.971.058 2.982.058 1.039 0 2.066-.023 3.077-.068a46.431 46.431 0 01-2.992 3.68zm10.391-11.51a46.08 46.08 0 011.712 4.483 46.096 46.096 0 01-4.754.81 76.99 76.99 0 001.564-2.593c.52-.9 1.012-1.801 1.478-2.7zm-3.364 1.613a70.418 70.418 0 01-2.445 3.944 65.044 65.044 0 01-4.667.164 71.66 71.66 0 01-4.614-.145 61.496 61.496 0 01-4.666-8.058 61.703 61.703 0 014.639-8.042 61.575 61.575 0 019.291.001 65.89 65.89 0 012.455 3.921c.8 1.38 1.533 2.748 2.197 4.09a65.6 65.6 0 01-2.19 4.125zM37.14 2.579c1.707.984 2.37 4.954 1.299 10.158-.069.333-.146.67-.23 1.014a52.192 52.192 0 00-6.814-1.077c-1.4-1.994-2.851-3.807-4.308-5.377.392-.376.783-.736 1.172-1.075 3.763-3.274 7.28-4.567 8.881-3.643z" />
		<path fill="currentColor" d="M25.537 18.194a4.55 4.55 0 110 9.102 4.55 4.55 0 010-9.102" />
	</g>
</svg>
