<svg xmlns="http://www.w3.org/2000/svg" width="50" height="51" viewBox="0 0 50 51">
	<path fill="#023189" fill-rule="evenodd"
		d="M25.03 0c13.809 0 25 11.411 24.97 25.5C50 39.589 38.809 51 25 51S0 39.589 0 25.5 11.191 0 25.03 0zm0 1.126c-6.408 0-12.395 2.526-16.907 7.151-4.513 4.625-7.01 10.741-7.01 17.253 0 6.512 2.497 12.66 7.01 17.254 4.512 4.625 10.53 7.151 16.907 7.151 6.378 0 12.395-2.556 16.907-7.151 4.513-4.625 7.01-10.742 7.01-17.254 0-6.512-2.497-12.658-7.01-17.253-4.512-4.625-10.53-7.15-16.907-7.15zm-1.233 8.977s-3.22 1.917-3.22 4.777c0 .852.121 1.4.301 1.796.241.486.602.67.933.67.27 0 .542-.123.752-.275v15.55s.09.243.301.547c.33.426.903.944 1.865.944 1.595 0 3.67-1.856 3.67-1.856V19.658c0-1.278-.932-2.83-1.895-3.348 0 0 2.046-.121 3.039.67 0 0 3.37-4.108 9.566-5.356 0 0-3.309 3.987-4.362 5.964-.18.03-.21 3.743-.18 7.486.03 3.59.09 7.212.15 7.455 0 0 .361.548 1.264.548 1.023 0 2.737-.67 5.475-3.621 0 0-2.918 6.725-8.935 10.346l-3.31-2.83-.09-.06-3.61 3.894s-8.182-.73-11.612-5.75c0 0 .541.212 1.113.212.692.03 1.444-.243 1.444-1.4V22.031c0-.608-.421-1.278-1.324-1.278-.812.03-1.985.578-3.58 2.222-3.19 3.343-4.568 6.548-4.685 6.827l-.008.02s-.962-4.809 4.062-10.651c5.024-5.843 8.814-7.973 12.876-9.068z"
		opacity=".4" />
</svg>
