<svg xmlns="http://www.w3.org/2000/svg" width="51" height="46" viewBox="0 0 51 46">
	<path fill="currentColor"
		d="M14.716 0c-1.378.003-2.726.796-3.42 2.005L.512 20.995c-.683 1.213-.683 2.797 0 4.01l10.784 18.99c.694 1.21 2.042 2.002 3.42 2.005h21.568c1.378-.003 2.726-.796 3.42-2.005l10.784-18.99c.683-1.213.683-2.797 0-4.01L39.704 2.005C39.01.795 37.662.003 36.284 0H14.716zm.195 11.11c.03-.003.061-.003.09 0h3.721c.165.003.324.1.407.245l6.31 11.4c.033.057.053.12.06.184.009-.065.029-.127.06-.184l6.297-11.4c.085-.15.252-.247.421-.245h3.72c.33.003.577.423.423.719L30.26 23l6.16 11.156c.169.297-.084.737-.422.734h-3.72c-.173-.001-.341-.105-.422-.26l-6.296-11.4c-.032-.057-.052-.12-.06-.184-.008.064-.028.127-.06.184l-6.311 11.4c-.079.15-.24.253-.407.26h-3.72c-.338.003-.591-.437-.422-.734L20.74 23l-6.16-11.171c-.148-.27.033-.662.331-.72z" />
</svg>
