<svg xmlns="http://www.w3.org/2000/svg" xmlns:xlink="http://www.w3.org/1999/xlink" viewBox="0 0 2500 402.55"><defs><linearGradient id="a" x1="1623.44" y1="291.73" x2="2120.39" y2="66.3" gradientUnits="userSpaceOnUse"><stop offset="0" stop-color="#023189"/><stop offset="0.62" stop-color="#00eaf3"/><stop offset="1" stop-color="#00eaf3"/></linearGradient><linearGradient id="b" x1="2215.35" y1="186.15" x2="1771.34" y2="485.64" gradientUnits="userSpaceOnUse"><stop offset="0" stop-color="#023189"/><stop offset="0.62" stop-color="#00eaf3"/><stop offset="1" stop-color="#00eaf3"/></linearGradient><radialGradient id="c" cx="1735.81" cy="371.9" r="63.94" gradientTransform="translate(26.69) scale(0.98 0.98)" gradientUnits="userSpaceOnUse"><stop offset="0" stop-color="#003"/><stop offset="1" stop-color="#003" stop-opacity="0"/></radialGradient><radialGradient id="d" cx="2149.16" cy="148.39" r="59.1" xlink:href="#c"/></defs><title>logo</title><path d="M686.24,399.07V252.54a94.88,94.88,0,0,0-20.85-59.08,81.94,81.94,0,0,0-24.62-20.28,83.94,83.94,0,0,0-32.72-9.84,71.88,71.88,0,0,0-30.7,9,89.46,89.46,0,0,0-40.54,48.08,104.35,104.35,0,0,0-6.37,32.15V399.07H472.51V252.54a94.88,94.88,0,0,0-20.85-59.08,83,83,0,0,0-24.33-20.28,81.61,81.61,0,0,0-32.43-9.84,79.17,79.17,0,0,0-55.6,27.8,90.48,90.48,0,0,0-16.22,27.8,92.72,92.72,0,0,0-5.79,32.44V399.07H259.94V109.47h51.55l.58,24.33q35.91-29,81.67-29a126.25,126.25,0,0,1,60.53,15A134.3,134.3,0,0,1,500.89,161a133.92,133.92,0,0,1,47.5-41.41,126.32,126.32,0,0,1,59.08-14.77,120.34,120.34,0,0,1,53,11.87,139,139,0,0,1,43.15,32.43,157,157,0,0,1,29.25,47.5,153,153,0,0,1,10.71,57.05V399.07Z" fill="#023189"/><path d="M1074.87,399.65h-52.71l-2.9-26.64q-36.48,29.53-84.56,29.54a128.13,128.13,0,0,1-53-11.3,136.27,136.27,0,0,1-44.89-32.72,143.22,143.22,0,0,1-30.4-48.36,159,159,0,0,1-10.14-56.48,154.89,154.89,0,0,1,10.43-56.47,145.34,145.34,0,0,1,30.11-47.79,141.22,141.22,0,0,1,44.6-33,125.05,125.05,0,0,1,97.6-3.19A153.7,153.7,0,0,1,1018.69,135c.77-4.64,1.35-9.17,1.73-13.62a92.65,92.65,0,0,1,1.74-11.87h52.71ZM966.55,337.1A79.85,79.85,0,0,0,992.62,318,91,91,0,0,0,1010,289.31a98.22,98.22,0,0,0,6.37-35.62,96.62,96.62,0,0,0-6.37-35A91.12,91.12,0,0,0,992.62,190a83.48,83.48,0,0,0-26.07-19.4,72.5,72.5,0,0,0-31.85-7.24,70.74,70.74,0,0,0-31.57,7.24A84.59,84.59,0,0,0,877.36,190,91.12,91.12,0,0,0,860,218.65a96.41,96.41,0,0,0-6.37,35A98,98,0,0,0,860,289.31,91,91,0,0,0,877.36,318a80.8,80.8,0,0,0,25.77,19.12,73.28,73.28,0,0,0,31.57,6.95A75.11,75.11,0,0,0,966.55,337.1Z" fill="#023189"/><path d="M1245.43,170.29a87.13,87.13,0,0,0-27.81,19.11,92.26,92.26,0,0,0-18.82,28.38,87.19,87.19,0,0,0-7,34.76q0,34.74-.29,73.26t-.29,73.27h-58.5V109.47h52.71l1.74,29a105.92,105.92,0,0,1,22.87-16.51A137.06,137.06,0,0,1,1235,111.5a144.94,144.94,0,0,1,24.33-5.22,177.56,177.56,0,0,1,21.14-1.44v58.5A86.51,86.51,0,0,0,1245.43,170.29Z" fill="#023189"/><path d="M1473.92,399.07h-40a117.93,117.93,0,0,1-47.49-9.55,122.81,122.81,0,0,1-64.58-64.59,116.34,116.34,0,0,1-9.56-46.91V0h58.5V109.47h61.39v59.08h-61.39V278a59.48,59.48,0,0,0,4.92,24,63.39,63.39,0,0,0,13.32,19.7A63.31,63.31,0,0,0,1434,340h40Z" fill="#023189"/><rect x="1518.51" width="58.27" height="399.07" fill="#023189"/><path d="M2466.18,360.1l-83.84-104.23,12.82-16.08L2500,109.47h-75.88q-22,27.79-44,55t-44.6,56.19V0H2277V399.07h58.5v-83.4l9.4-12.33,1.38,1.73,1.2,1.48c11,13.94,21.86,27.66,32.62,41q22,27.23,44,55H2500l-34.15-42.45Z" fill="#023189"/><path d="M2027.09,190c-1.3,1.41-2.5,2.92-3.72,4.41v-.08c-57.23,59.38-139.19,59.38-196.42,0v.09c-1.22-1.5-2.42-3-3.73-4.42a85.88,85.88,0,0,0-26.64-19.4,77.58,77.58,0,0,0-65.45,0,86,86,0,0,0-26.64,19.4,94,94,0,0,0-24.62,63.71,94.29,94.29,0,0,0,6.66,35.62,92.38,92.38,0,0,0,18,28.67,82.26,82.26,0,0,0,26.64,19.12,80.52,80.52,0,0,0,65.45,0A82.15,82.15,0,0,0,1823.22,318c1.49-1.6,2.87-3.3,4.23-5v.11c57.23-59.39,138.21-59.39,195.43,0V313c1.36,1.71,2.74,3.4,4.21,5a82.19,82.19,0,0,0,26.65,19.12,80.52,80.52,0,0,0,65.45,0A82.26,82.26,0,0,0,2145.83,318a92.57,92.57,0,0,0,18-28.67,94.29,94.29,0,0,0,6.66-35.62A94,94,0,0,0,2145.83,190a86,86,0,0,0-26.64-19.4,77.58,77.58,0,0,0-65.45,0A85.92,85.92,0,0,0,2027.09,190Z" fill="none"/><path d="M2029.39,117.54a144.94,144.94,0,0,0-43.71,31.89c-1.54,1.58-3,3.2-4.47,4.83-39.59,41.25-72.62,41-112.3-.84-1.22-1.34-2.42-2.68-3.69-4a143.71,143.71,0,0,0-46.34-33,134,134,0,0,0-55-11.58,132,132,0,0,0-54.74,11.58,153,153,0,0,0-77,80.8,151.57,151.57,0,0,0,31,161.31A140.82,140.82,0,0,0,1707,390.26a58.5,58.5,0,0,1,56.39-46.18V344a78.38,78.38,0,0,1-32.27-6.92A82.26,82.26,0,0,1,1704.49,318a92.38,92.38,0,0,1-18-28.67,94.29,94.29,0,0,1-6.66-35.62A94,94,0,0,1,1704.49,190a86,86,0,0,1,26.64-19.4,77.58,77.58,0,0,1,65.45,0,85.88,85.88,0,0,1,26.64,19.4c1.31,1.41,2.51,2.92,3.73,4.42v-.09c57.23,59.38,139.19,59.38,196.42,0v.08c1.22-1.49,2.42-3,3.72-4.41a85.92,85.92,0,0,1,26.65-19.4,75.53,75.53,0,0,1,32.17-7.21v-.06l.55,0a58.49,58.49,0,0,0,57.11-45.93c-.7-.32-1.38-.68-2.08-1a134.05,134.05,0,0,0-55-11.58,132,132,0,0,0-54.73,11.58c-.8.36-1.56.75-2.34,1.12" fill="url(#a)"/><path d="M1821.42,390.39a133.24,133.24,0,0,0,43.8-31.86c1.29-1.36,2.51-2.75,3.74-4.14v.05c40.34-42.81,72.67-42.81,113,0h0c1.22,1.38,2.44,2.75,3.71,4.1a140.67,140.67,0,0,0,46,32.72,134.83,134.83,0,0,0,54.73,11.3,140,140,0,0,0,55-11,132.78,132.78,0,0,0,46.33-33,147.82,147.82,0,0,0,30.7-48.07,158.9,158.9,0,0,0,0-113.24,140.81,140.81,0,0,0-30.7-47.79,143.81,143.81,0,0,0-44.25-32,58.47,58.47,0,0,1-56.46,45.9v.06a75.64,75.64,0,0,1,32.08,7.21,86,86,0,0,1,26.64,19.4,94,94,0,0,1,24.62,63.71,94.29,94.29,0,0,1-6.66,35.62,92.57,92.57,0,0,1-18,28.67,82.26,82.26,0,0,1-26.64,19.12,80.52,80.52,0,0,1-65.45,0A82.19,82.19,0,0,1,2027.09,318c-1.47-1.59-2.85-3.28-4.21-5v.09c-57.22-59.39-138.2-59.39-195.43,0V313c-1.36,1.71-2.74,3.41-4.23,5a82.15,82.15,0,0,1-26.64,19.12,78.3,78.3,0,0,1-31.9,6.91v.06l-.48,0A58.53,58.53,0,0,0,1707,390.26c.71.33,1.4.68,2.11,1a134.88,134.88,0,0,0,54.74,11.3,139.94,139.94,0,0,0,55-11c.86-.36,1.69-.77,2.54-1.15" fill="url(#b)"/><path d="M2029.39,117.54a144.94,144.94,0,0,0-43.71,31.89c-1.54,1.58-3,3.2-4.47,4.83-39.59,41.25-72.62,41-112.3-.84-1.22-1.34-2.42-2.68-3.69-4a143.71,143.71,0,0,0-46.34-33,134,134,0,0,0-55-11.58,132,132,0,0,0-54.74,11.58,153,153,0,0,0-77,80.8,151.57,151.57,0,0,0,31,161.31A140.82,140.82,0,0,0,1707,390.26a58.5,58.5,0,0,1,56.39-46.18V344a78.38,78.38,0,0,1-32.27-6.92A82.26,82.26,0,0,1,1704.49,318a92.38,92.38,0,0,1-18-28.67,94.29,94.29,0,0,1-6.66-35.62A94,94,0,0,1,1704.49,190a86,86,0,0,1,26.64-19.4,77.58,77.58,0,0,1,65.45,0,85.88,85.88,0,0,1,26.64,19.4c1.31,1.41,2.51,2.92,3.73,4.42v-.09c57.23,59.38,139.19,59.38,196.42,0v.08c1.22-1.49,2.42-3,3.72-4.41a85.92,85.92,0,0,1,26.65-19.4,75.53,75.53,0,0,1,32.17-7.21v-.06l.55,0a58.49,58.49,0,0,0,57.11-45.93c-.7-.32-1.38-.68-2.08-1a134.05,134.05,0,0,0-55-11.58,132,132,0,0,0-54.73,11.58c-.8.36-1.56.75-2.34,1.12" opacity="0.71" fill="url(#c)"/><path d="M1821.42,390.39a133.24,133.24,0,0,0,43.8-31.86c1.29-1.36,2.51-2.75,3.74-4.14v.05c40.34-42.81,72.67-42.81,113,0h0c1.22,1.38,2.44,2.75,3.71,4.1a140.67,140.67,0,0,0,46,32.72,134.83,134.83,0,0,0,54.73,11.3,140,140,0,0,0,55-11,132.78,132.78,0,0,0,46.33-33,147.82,147.82,0,0,0,30.7-48.07,158.9,158.9,0,0,0,0-113.24,140.81,140.81,0,0,0-30.7-47.79,143.81,143.81,0,0,0-44.25-32,58.47,58.47,0,0,1-56.46,45.9v.06a75.64,75.64,0,0,1,32.08,7.21,86,86,0,0,1,26.64,19.4,94,94,0,0,1,24.62,63.71,94.29,94.29,0,0,1-6.66,35.62,92.57,92.57,0,0,1-18,28.67,82.26,82.26,0,0,1-26.64,19.12,80.52,80.52,0,0,1-65.45,0A82.19,82.19,0,0,1,2027.09,318c-1.47-1.59-2.85-3.28-4.21-5v.09c-57.22-59.39-138.2-59.39-195.43,0V313c-1.36,1.71-2.74,3.41-4.23,5a82.15,82.15,0,0,1-26.64,19.12,78.3,78.3,0,0,1-31.9,6.91v.06l-.48,0A58.53,58.53,0,0,0,1707,390.26c.71.33,1.4.68,2.11,1a134.88,134.88,0,0,0,54.74,11.3,139.94,139.94,0,0,0,55-11c.86-.36,1.69-.77,2.54-1.15" opacity="0.71" fill="url(#d)"/><path d="M46.61,387.86q-25.32-13-46.61-44l49.48-31.07Q61.57,330,74.22,336.36a64.52,64.52,0,0,0,26.47,6.9q20.72,0,35.1-7.76t15.53-18.7q0-6.33-4.88-12.09a68.42,68.42,0,0,0-12.66-11.22,151.78,151.78,0,0,0-17.84-10.64q-10.06-5.19-21-10.36-15-6.9-30.5-15.24a164.74,164.74,0,0,1-27.9-18.71A88.29,88.29,0,0,1,16.4,214.66q-7.77-13.51-7.19-31.35.57-19,9.2-33.09a77.27,77.27,0,0,1,22.44-23.58,105.83,105.83,0,0,1,30.5-14.39,116.19,116.19,0,0,1,32.79-4.89q36.26,1.15,60.71,14.67a162.81,162.81,0,0,1,44,36L160,193.67q-22.44-25.9-52.94-27.62-20.14,0-29.35,5.75t-9.2,12.66q0,5.76,7.19,11.51A114.79,114.79,0,0,0,92.35,206.9q9.5,5.17,18.41,9.2t12.95,5.76q9.78,4.6,21,9.78a146.56,146.56,0,0,1,19.85,10.93q47.76,30.49,46,75.95-1.72,35.67-34,61-31.06,23-77.1,23A133.61,133.61,0,0,1,46.61,387.86Z" fill="#023189"/></svg>