<svg xmlns="http://www.w3.org/2000/svg" width="178" height="30"><defs><radialGradient id="c" cx="19.256%" cy="90.565%" r="18.236%" fx="19.256%" fy="90.565%" gradientTransform="matrix(-.43339 -.63608 .7762 -1.67646 -.427 2.546)"><stop offset="0%" stop-color="#003"/><stop offset="100%" stop-color="#003" stop-opacity="0"/></radialGradient><radialGradient id="d" cx="80.857%" cy="9.148%" r="18.241%" fx="80.857%" fy="9.148%" gradientTransform="matrix(-.43326 -.63588 .77555 -1.6768 1.088 .759)"><stop offset="0%" stop-color="#003"/><stop offset="100%" stop-color="#003" stop-opacity="0"/></radialGradient><linearGradient id="a" x1="100%" x2="16.557%" y1="35.682%" y2="65.773%"><stop offset="0%" stop-color="#00EAF3"/><stop offset="33.418%" stop-color="#00EAF3"/><stop offset="100%" stop-color="#023189"/></linearGradient><linearGradient id="b" x1="0%" x2="83.552%" y1="64.337%" y2="34.243%"><stop offset="0%" stop-color="#00EAF3"/><stop offset="33.418%" stop-color="#00EAF3"/><stop offset="100%" stop-color="#023189"/></linearGradient></defs><g fill="none" fill-rule="evenodd"><path fill="#023189" d="M48.958 28.929V18.257a6.82 6.82 0 00-.398-2.3 6.822 6.822 0 00-1.108-2.003 5.93 5.93 0 00-1.778-1.476 6.028 6.028 0 00-2.364-.717 5.157 5.157 0 00-2.217.653 6.492 6.492 0 00-2.928 3.501 7.666 7.666 0 00-.46 2.342v10.672h-4.183V18.257a6.82 6.82 0 00-.398-2.3 6.822 6.822 0 00-1.108-2.003 6.018 6.018 0 00-1.757-1.476 5.86 5.86 0 00-2.343-.717 5.702 5.702 0 00-4.015 2.024 6.614 6.614 0 00-1.172 2.025 6.795 6.795 0 00-.418 2.362V28.93H18.17V7.837h3.723l.041 1.772C23.664 8.203 25.63 7.5 27.833 7.5c1.561 0 3.018.365 4.37 1.096a9.739 9.739 0 013.368 2.996 9.693 9.693 0 013.43-3.016c1.367-.718 2.79-1.076 4.268-1.076 1.366 0 2.642.288 3.827.865a10.036 10.036 0 013.117 2.362 11.44 11.44 0 012.112 3.459 11.22 11.22 0 01.774 4.155v10.588h-4.141zm19.609-4.711a5.768 5.768 0 001.882-1.376 6.558 6.558 0 001.254-2.064c.307-.792.46-1.647.46-2.564 0-.89-.153-1.73-.46-2.522a6.565 6.565 0 00-1.254-2.064 6.048 6.048 0 00-1.882-1.396 5.257 5.257 0 00-2.3-.521c-.808 0-1.567.174-2.278.52a6.141 6.141 0 00-1.86 1.397 6.559 6.559 0 00-1.255 2.064 6.918 6.918 0 00-.46 2.522c0 .917.153 1.772.46 2.564.307.792.725 1.48 1.254 2.064a5.835 5.835 0 001.86 1.376c.712.333 1.471.5 2.28.5a5.44 5.44 0 002.299-.5zm7.819 4.502h-3.805l-.21-1.918c-1.755 1.418-3.79 2.127-6.104 2.127a9.268 9.268 0 01-3.825-.814 9.837 9.837 0 01-3.24-2.355 10.301 10.301 0 01-2.195-3.48 11.409 11.409 0 01-.732-4.066c0-1.417.25-2.772.752-4.064a10.46 10.46 0 012.175-3.44c.947-1.028 2.02-1.82 3.219-2.376a9.027 9.027 0 017.045-.23c1.073.403 2.028.925 2.864 1.564.056-.333.098-.66.126-.98.028-.32.07-.604.125-.855h3.805V28.72zm10.191-16.453a6.24 6.24 0 00-1.993 1.392 6.726 6.726 0 00-1.35 2.067 6.448 6.448 0 00-.497 2.53 770.3 770.3 0 01-.02 5.337c-.015 1.87-.022 3.648-.022 5.336h-4.192V7.838h3.777l.125 2.109a7.6 7.6 0 011.64-1.203 9.723 9.723 0 011.784-.759 10.22 10.22 0 011.744-.38 12.51 12.51 0 011.515-.105v4.26c-.914 0-1.75.17-2.511.507m16.271 16.662h-2.88a8.446 8.446 0 01-3.421-.693 8.888 8.888 0 01-2.776-1.89 8.952 8.952 0 01-1.878-2.792 8.494 8.494 0 01-.688-3.4V0h4.215v7.935h4.423v4.283H95.42v7.935c0 .616.118 1.197.354 1.743.237.546.557 1.022.96 1.427a4.5 4.5 0 001.44.966 4.513 4.513 0 001.795.357h2.879v4.283zm3.175 0h4.234V0h-4.234zm69.409-2.093l-6.368-7.767.974-1.199L178 8.158h-5.763a510.547 510.547 0 01-3.343 4.1 310.163 310.163 0 00-3.387 4.188V0h-4.443v29.741h4.443v-6.216l.713-.919.106.13.09.11a311.08 311.08 0 002.478 3.053A510.545 510.545 0 01172.237 30H178l-2.593-3.164h.025zM3.688 27.863c-1.272-.626-2.443-1.691-3.513-3.195l3.73-2.256c.607.836 1.229 1.407 1.865 1.713a5.021 5.021 0 001.995.501c1.04 0 1.923-.188 2.645-.564.723-.376 1.114-.828 1.171-1.357 0-.307-.123-.599-.368-.877a5.034 5.034 0 00-.954-.815c-.39-.264-.839-.522-1.345-.773a53.728 53.728 0 00-1.583-.752 42.975 42.975 0 01-2.298-1.107 12.429 12.429 0 01-2.103-1.357 6.485 6.485 0 01-1.52-1.734c-.39-.654-.57-1.413-.541-2.276.029-.919.26-1.72.693-2.402A5.716 5.716 0 013.254 8.9a8.121 8.121 0 012.3-1.045 9.072 9.072 0 012.47-.355c1.822.056 3.347.411 4.576 1.065a12.19 12.19 0 013.317 2.611l-3.686 2.59c-1.128-1.253-2.458-1.922-3.99-2.005-1.012 0-1.75.139-2.212.418-.462.278-.694.584-.694.918 0 .28.18.558.542.836a8.76 8.76 0 001.258.794c.477.25.94.473 1.388.668.448.195.773.334.976.417.49.223 1.019.46 1.582.71.564.251 1.063.516 1.497.794 2.4 1.476 3.556 3.314 3.47 5.514-.088 1.726-.94 3.203-2.56 4.428-1.56 1.114-3.498 1.67-5.81 1.67a10.355 10.355 0 01-3.99-1.065"/><path fill="url(#a)" d="M29.644.949a10.545 10.545 0 00-3.175 2.38c-.111.119-.22.24-.325.361-2.876 3.08-5.276 3.061-8.16-.063a11.7 11.7 0 00-.267-.297A10.443 10.443 0 0014.35.865 9.512 9.512 0 0010.352 0a9.374 9.374 0 00-3.977.865A10.52 10.52 0 003.03 3.33 10.835 10.835 0 00.778 6.897 11.58 11.58 0 000 11.113c0 1.5.26 2.912.778 4.239A11.39 11.39 0 003.03 18.94a10.268 10.268 0 003.192 2.369c.407-1.953 2.082-3.42 4.097-3.448v-.004a5.567 5.567 0 01-2.344-.517 5.976 5.976 0 01-1.936-1.428 6.933 6.933 0 01-1.305-2.14 7.209 7.209 0 01-.484-2.66c0-.922.161-1.794.484-2.615a6.94 6.94 0 011.306-2.14 6.269 6.269 0 011.936-1.449 5.385 5.385 0 012.377-.54c.842 0 1.634.18 2.378.54a6.28 6.28 0 011.936 1.449c.095.105.182.218.27.33V6.68c4.158 4.433 10.114 4.433 14.272 0v.006c.088-.112.175-.224.27-.33a6.273 6.273 0 011.936-1.448 5.377 5.377 0 012.337-.538v-.004l.04.002c2.034 0 3.731-1.469 4.15-3.43-.05-.023-.1-.05-.152-.073A9.513 9.513 0 0033.791 0a9.371 9.371 0 00-3.976.865c-.058.027-.113.056-.17.084" transform="translate(114.491 7.5)"/><path fill="url(#b)" d="M14.535 21.32c1.186-.547 2.248-1.338 3.182-2.38.093-.101.183-.205.272-.309v.004c2.93-3.196 5.28-3.196 8.21 0 .089.102.177.205.27.306.982 1.066 2.097 1.88 3.346 2.443a9.568 9.568 0 003.976.843 9.936 9.936 0 003.998-.822c1.263-.547 2.385-1.37 3.367-2.464a11.088 11.088 0 002.23-3.59c.505-1.326.758-2.738.758-4.238 0-1.47-.253-2.875-.758-4.216a10.564 10.564 0 00-2.23-3.567A10.46 10.46 0 0037.94.939c-.415 1.945-2.09 3.404-4.103 3.427v.004a5.38 5.38 0 012.331.538 6.28 6.28 0 011.936 1.449 6.947 6.947 0 011.305 2.14c.322.822.484 1.694.484 2.616 0 .952-.162 1.839-.484 2.66a6.945 6.945 0 01-1.305 2.14 5.989 5.989 0 01-1.936 1.428 5.566 5.566 0 01-2.378.519 5.566 5.566 0 01-2.377-.52 5.983 5.983 0 01-1.936-1.426 6.68 6.68 0 01-.306-.373v.006c-4.158-4.434-10.041-4.434-14.2 0v-.008a6.1 6.1 0 01-.306.375 5.989 5.989 0 01-1.936 1.427 5.565 5.565 0 01-2.318.515v.005l-.035-.002c-2.041 0-3.744 1.48-4.155 3.45l.153.075a9.57 9.57 0 003.977.843 9.933 9.933 0 003.998-.822c.063-.027.123-.058.185-.086" transform="translate(114.491 7.5)"/><path fill="url(#c)" d="M29.644.949a10.545 10.545 0 00-3.175 2.38c-.111.119-.22.24-.325.361-2.876 3.08-5.276 3.061-8.16-.063a11.7 11.7 0 00-.267-.297A10.443 10.443 0 0014.35.865 9.512 9.512 0 0010.352 0a9.374 9.374 0 00-3.977.865A10.52 10.52 0 003.03 3.33 10.835 10.835 0 00.778 6.897 11.58 11.58 0 000 11.113c0 1.5.26 2.912.778 4.239A11.39 11.39 0 003.03 18.94a10.268 10.268 0 003.192 2.369c.407-1.953 2.082-3.42 4.097-3.448v-.004a5.567 5.567 0 01-2.344-.517 5.976 5.976 0 01-1.936-1.428 6.933 6.933 0 01-1.305-2.14 7.209 7.209 0 01-.484-2.66c0-.922.161-1.794.484-2.615a6.94 6.94 0 011.306-2.14 6.269 6.269 0 011.936-1.449 5.385 5.385 0 012.377-.54c.842 0 1.634.18 2.378.54a6.28 6.28 0 011.936 1.449c.095.105.182.218.27.33V6.68c4.158 4.433 10.114 4.433 14.272 0v.006c.088-.112.175-.224.27-.33a6.273 6.273 0 011.936-1.448 5.377 5.377 0 012.337-.538v-.004l.04.002c2.034 0 3.731-1.469 4.15-3.43-.05-.023-.1-.05-.152-.073A9.513 9.513 0 0033.791 0a9.371 9.371 0 00-3.976.865c-.058.027-.113.056-.17.084" transform="translate(114.491 7.5)"/><path fill="url(#d)" d="M14.535 21.32c1.186-.547 2.248-1.338 3.182-2.38.093-.101.183-.205.272-.309v.004c2.93-3.196 5.28-3.196 8.21 0 .089.102.177.205.27.306.982 1.066 2.097 1.88 3.346 2.443a9.568 9.568 0 003.976.843 9.936 9.936 0 003.998-.822c1.263-.547 2.385-1.37 3.367-2.464a11.088 11.088 0 002.23-3.59c.505-1.326.758-2.738.758-4.238 0-1.47-.253-2.875-.758-4.216a10.564 10.564 0 00-2.23-3.567A10.46 10.46 0 0037.94.939c-.415 1.945-2.09 3.404-4.103 3.427v.004a5.38 5.38 0 012.331.538 6.28 6.28 0 011.936 1.449 6.947 6.947 0 011.305 2.14c.322.822.484 1.694.484 2.616 0 .952-.162 1.839-.484 2.66a6.945 6.945 0 01-1.305 2.14 5.989 5.989 0 01-1.936 1.428 5.566 5.566 0 01-2.378.519 5.566 5.566 0 01-2.377-.52 5.983 5.983 0 01-1.936-1.426 6.68 6.68 0 01-.306-.373v.006c-4.158-4.434-10.041-4.434-14.2 0v-.008a6.1 6.1 0 01-.306.375 5.989 5.989 0 01-1.936 1.427 5.565 5.565 0 01-2.318.515v.005l-.035-.002c-2.041 0-3.744 1.48-4.155 3.45l.153.075a9.57 9.57 0 003.977.843 9.933 9.933 0 003.998-.822c.063-.027.123-.058.185-.086" transform="translate(114.491 7.5)"/></g></svg>